<?xml version="1.0" encoding="UTF-8"?>
<svg width="599px" height="104px" viewBox="0 0 599 104" version="1.1" xmlns="http://www.w3.org/2000/svg" xmlns:xlink="http://www.w3.org/1999/xlink">
    <title>Untitled 74</title>
    <defs>
        <circle id="path-1" cx="51.031" cy="51.031" r="51.031"></circle>
    </defs>
    <g id="Page-1" stroke="none" stroke-width="1" fill="none" fill-rule="evenodd">
        <g id="condosLogo" transform="translate(0.969000, 0.969000)">
            <path d="M137.66592,51.441 C137.654335,59.5775107 140.893043,67.381644 146.662369,73.1190484 C152.431696,78.8564529 160.253679,82.0518101 168.39,81.995 C176.103392,82.0818145 183.537956,79.1138843 189.071,73.739 C189.389073,73.4463199 189.576993,73.0386651 189.592956,72.606719 C189.608919,72.174773 189.451602,71.7543594 189.156,71.439 L183.88,65.992 C183.278852,65.4379617 182.353148,65.4379617 181.752,65.992 C178.111858,69.0816385 173.50435,70.7983969 168.73,70.844 C157.837,70.844 149.666,61.822 149.666,51.184 C149.666,40.46 157.752,31.354 168.645,31.354 C173.474775,31.4015986 178.12655,33.18359 181.752,36.375 C182.010669,36.6980839 182.402125,36.8861356 182.816,36.8861356 C183.229875,36.8861356 183.621331,36.6980839 183.88,36.375 L189.071,31.013 C189.404546,30.7004774 189.586619,30.2589644 189.570326,29.8021734 C189.554032,29.3453825 189.340965,28.9179638 188.986,28.63 C183.442624,23.3611444 176.031211,20.5135069 168.386,20.715 C160.232296,20.6979563 152.407727,23.9298695 146.642738,29.6959843 C140.877749,35.4620992 137.647364,43.2872996 137.66592,51.441 L137.66592,51.441 Z M192.56,51.441 C192.628461,68.3305846 206.368051,81.9708667 223.257688,81.9169692 C240.147325,81.8627514 253.799319,68.1347988 253.75975,51.2451219 C253.72001,34.3554451 240.003705,20.691749 223.114,20.7164103 C214.965564,20.666256 207.138614,23.8924635 201.392695,29.6703525 C195.646776,35.4482414 192.464046,43.2929708 192.56,51.441 L192.56,51.441 Z M203.623952,51.441 C203.60661,43.5328399 208.359287,36.3944984 215.66216,33.3601379 C222.965033,30.3257774 231.376942,31.9942033 236.96887,37.5861305 C242.560797,43.1780576 244.229223,51.5899667 241.194862,58.8928398 C238.160502,66.1957129 231.02216,70.94839 223.114,70.9310476 C212.394718,70.8237287 203.731271,62.1602821 203.623952,51.441 L203.623952,51.441 Z M261.497,79.531 C261.526505,80.4115336 262.233466,81.118495 263.114,81.148 L270.859,81.148 C271.287936,81.1482655 271.699381,80.9779888 272.002685,80.6746849 C272.305989,80.371381 272.476266,79.9599364 272.476,79.531 L272.476,42.931 L272.561,42.931 L308.137,81.9961083 L310.179,81.9961083 C311.043339,82.0059628 311.759321,81.3276181 311.796,80.464 L311.796,23.185 C311.766495,22.3044664 311.059534,21.597505 310.179,21.568 L302.349,21.568 C301.920064,21.5677345 301.508619,21.7380112 301.205315,22.0413151 C300.902011,22.344619 300.731734,22.7560636 300.732,23.185 L300.732,58.331 L300.647,58.331 L265.247,20.7128917 L263.119,20.7128917 C262.254661,20.7030372 261.538679,21.3813819 261.502,22.245 L261.502,79.531 L261.497,79.531 Z M323.881892,79.531 C323.872037,80.3953392 324.550382,81.1113206 325.414,81.148 L345.584,81.148 C362.035458,81.148 375.372,67.8114581 375.372,51.36 C375.372,34.9085419 362.035458,21.572 345.584,21.572 L325.414,21.572 C324.550382,21.6086794 323.872037,22.3246608 323.881892,23.189 L323.881892,79.531 L323.881892,79.531 Z M334.861,70.764 L334.861,31.866 L344.561,31.866 C355.625,31.866 363.71,40.207 363.71,51.266 C363.71,62.415 355.625,70.755 344.561,70.755 L334.861,70.755 L334.861,70.764 Z M379.031,51.441 C379.099461,68.3305846 392.839051,81.9708667 409.728688,81.9169692 C426.618325,81.8627514 440.270319,68.1347988 440.23075,51.2451219 C440.19101,34.3554451 426.474705,20.691749 409.585,20.7164166 C401.436647,20.6665297 393.609857,23.8928248 387.863998,29.6706536 C382.118139,35.4484824 378.93532,43.2930524 379.031,51.441 L379.031,51.441 Z M390.094952,51.441 C390.07761,43.5328399 394.830287,36.3944984 402.13316,33.3601379 C409.436033,30.3257774 417.847942,31.9942033 423.43987,37.5861305 C429.031797,43.1780576 430.700223,51.5899667 427.665862,58.8928398 C424.631502,66.1957129 417.49316,70.94839 409.585,70.9310476 C398.865941,70.8231973 390.202803,62.1600589 390.094952,51.441 L390.094952,51.441 Z M444.904,75.356 C446.604,76.973 452.904,81.995 463.628,81.995 C475.628,81.995 483.203,73.909 483.203,65.143 C483.203,54.164 473.671,49.228 465.415,45.909 C458.522,43.101 455.373,40.377 455.373,36.377 C455.373,33.654 458.011,30.419 462.862,30.419 C467.543,30.419 474.011,34.674 474.692,35.1 C475.714,35.781 476.992,35.1 477.671,34.079 L480.905,29.228 C481.49221,28.3014751 481.269889,27.0793648 480.394,26.419 C475.43623,22.8240655 469.495878,20.8347578 463.373,20.719 C449.841,20.719 444.224,29.485 444.224,37.06 C444.224,47.103 452.224,52.209 460.224,55.443 C467.373,58.331 471.031,61.314 471.031,65.654 C471.031,69.314 467.711,72.207 463.286,72.207 C457.754,72.207 450.86,67.186 450.434,66.931 C449.982279,66.591792 449.406726,66.4627089 448.853406,66.5765096 C448.300086,66.6903104 447.82219,67.036055 447.541,67.526 L444.477,72.803 C443.713,74.165 444.138,74.59 444.904,75.356 L444.904,75.356 Z" id="CONDOS" fill="#1B3773"></path>
            <path d="M521.737982,49.065 C521.733656,52.3553243 523.043539,55.5111269 525.376621,57.8312523 C527.709703,60.1513778 530.872751,61.4436672 534.163,61.421 C537.282566,61.4563169 540.2894,60.2559557 542.527,58.082 C542.655164,57.9636395 542.730903,57.7991032 542.737471,57.6247702 C542.744039,57.4504371 542.680895,57.2806684 542.562,57.153 L540.428,54.953 C540.184816,54.7287226 539.810184,54.7287226 539.567,54.953 C538.094969,56.2024393 536.231709,56.8966506 534.301,56.915 C530.010841,56.7580536 526.611296,53.239374 526.602157,48.9463546 C526.593017,44.6533351 529.977548,41.1202123 534.267,40.945 C536.220104,40.9642881 538.101176,41.6851289 539.567,42.976 C539.671769,43.1065429 539.830114,43.1824949 539.9975,43.1824949 C540.164886,43.1824949 540.323231,43.1065429 540.428,42.976 L542.528,40.808 C542.663275,40.6817902 542.737209,40.5031455 542.730688,40.3182517 C542.724167,40.1333579 542.637831,39.9603659 542.494,39.844 C540.252087,37.7140462 537.255324,36.5628287 534.164,36.644 C530.867171,36.6370825 527.703307,37.9433382 525.371623,40.2740844 C523.039938,42.6048305 521.732409,45.7681684 521.737982,49.065 Z M543.938,49.065 C543.966155,55.8944727 549.522038,61.409803 556.351534,61.3879898 C563.18103,61.366047 568.701464,55.8152343 568.685896,48.9857214 C568.670261,42.1562084 563.124524,36.6306753 556.295,36.6397592 C552.999617,36.6193791 549.83421,37.9240236 547.510379,40.260642 C545.186549,42.5972604 543.899295,45.7697799 543.938,49.065 L543.938,49.065 Z M548.412979,49.065 C548.405721,45.8664839 550.327821,42.9792013 553.281477,41.7518171 C556.235133,40.5244329 559.637425,41.1991786 561.899123,43.4608769 C564.160821,45.7225751 564.835567,49.1248667 563.608183,52.0785231 C562.380799,55.0321795 559.493516,56.9542795 556.295,56.9470206 C551.959972,56.9036573 548.456343,53.4000283 548.412979,49.065 L548.412979,49.065 Z M570.231,60.286 C570.178487,60.4829598 570.224355,60.6931555 570.354146,60.8503338 C570.483937,61.0075121 570.681663,61.0923102 570.885,61.078 L573.985,61.078 C574.284039,61.0646093 574.537533,60.8536369 574.605,60.562 L576.605,47.517 L576.705,47.517 L582.797,61.044 C582.895803,61.2783661 583.127721,61.4286172 583.382,61.423 L584.002,61.423 C584.259194,61.4393129 584.496767,61.2853977 584.587,61.044 L590.61,47.517 L590.71,47.517 L592.74,60.562 C592.833187,60.850711 593.091531,61.0545416 593.394,61.078 L596.531,61.078 C596.733209,61.0957023 596.930658,61.0099679 597.055779,60.8501354 C597.180901,60.6903029 597.216728,60.4780459 597.151,60.286 L593.09,37.156 C593.055855,36.8451863 592.781847,36.617141 592.47,36.64 L591.919,36.64 C591.671243,36.6210208 591.437854,36.7582615 591.334,36.984 L583.761,53.231 L583.661,53.231 L576.089,36.985 C575.977737,36.7656119 575.748794,36.6312155 575.503,36.641 L574.953,36.641 C574.641153,36.618141 574.367145,36.8461863 574.333,37.157 L570.231,60.286 Z" id="COM" fill="#1B3773"></path>
            <path d="M494.431,51.297 C494.447977,55.1443414 497.562659,58.2590234 501.41,58.276 C505.273566,58.2649709 508.415749,55.1601574 508.473,51.297 C508.423995,47.4165894 505.291382,44.2822022 501.411,44.231 C497.546287,44.2877324 494.440405,47.431882 494.431,51.297 L494.431,51.297 Z" id="_." fill="#1B3773"></path>
            <g id="Shape" transform="translate(0.000000, 0.000000)">
                <mask id="mask-2" fill="white">
                    <use xlink:href="#path-1"></use>
                </mask>
                <use id="Mask" fill="#0EA0EC" fill-rule="nonzero" xlink:href="#path-1"></use>
                <path d="M-41.012,-20.634 C-34.2467731,-31.3891913 -22.4289981,-37.9127814 -9.723,-37.9060053 L-9.723,-32.595 C-21.3497663,-32.7337805 -32.5731598,-28.3371832 -41.012,-20.338 L-41.012,-20.638 L-41.012,-20.634 Z M85.182,81.248 C80.9304878,74.4885322 73.5033455,70.3885713 65.518,70.3929964 L65.518,73.731 C72.8244957,73.6433646 79.8777841,76.4052808 85.182,81.431 L85.182,81.245 L85.182,81.248 Z M85.182,132.348 L65.518,132.348 L65.518,135.686 L85.182,135.686 L85.182,132.348 Z M85.182,88.548 C80.3728307,82.6314851 73.1424314,79.2119004 65.518,79.248 L65.518,82.586 C72.6279813,82.5145111 79.5548844,84.8394481 85.182,89.186 L85.182,88.549 L85.182,88.548 Z M85.182,95.848 C79.8673343,90.8325145 72.8254793,88.0560955 65.518,88.095 L65.518,91.431 C72.4587984,91.3836228 79.2729659,93.2895383 85.182,96.931 L85.182,95.844 L85.182,95.848 Z M85.182,103.148 C79.4292393,99.0914328 72.5571369,96.9246796 65.518,96.948 L65.518,100.286 C72.3191352,100.264583 79.0385602,101.768116 85.182,104.686 L85.182,103.15 L85.182,103.148 Z M85.182,110.448 C79.0771936,107.392262 72.3448721,105.799567 65.518,105.796 L65.518,109.131 C72.2103469,109.13253 78.8557856,110.247764 85.182,112.431 L85.182,110.444 L85.182,110.448 Z M85.182,117.748 C78.8235057,115.719062 72.1923075,114.673663 65.518,114.648 L65.518,117.986 C72.1331651,118.002099 78.7268345,118.739796 85.182,120.186 L85.182,117.748 Z M85.182,125.048 C78.6746739,124.045843 72.101975,123.527755 65.518,123.498 L65.518,126.836 C72.0875395,126.853563 78.651489,127.220749 85.182,127.936 L85.182,125.048 L85.182,125.048 Z M59.511,34.442 C53.9025769,25.5297644 44.1080671,20.1247118 33.578,20.1309945 L33.578,24.531 C43.2141215,24.4151718 52.5162711,28.0581221 59.511,34.687 L59.511,34.442 L59.511,34.442 Z M59.511,131.286 L33.578,131.286 L33.578,135.686 L59.511,135.686 L59.511,131.286 Z M59.511,122.486 C51.16,121.704 42.43,121.186 33.578,121.186 L33.578,125.586 C42.378,125.586 51.078,125.943 59.511,126.51 L59.511,122.486 Z M59.511,113.686 C50.968976,111.996898 42.2853311,111.12629 33.578,111.086 L33.578,115.486 C42.2542706,115.511392 50.9187084,116.128491 59.511,117.333 L59.511,113.687 L59.511,113.686 Z M59.511,104.886 C51.1017802,102.334187 42.3658067,101.020405 33.578,100.986 L33.578,105.386 C42.2949236,105.408966 50.9858876,106.33728 59.511,108.156 L59.511,104.888 L59.511,104.886 Z M59.511,96.086 C51.2911685,92.6685949 42.4799042,90.8997504 33.578,90.88 L33.578,95.28 C42.3524996,95.2931841 51.0818122,96.5366223 59.511,98.974 L59.511,96.084 L59.511,96.086 Z M59.511,87.286 C51.5349875,83.0130368 42.6264799,80.7777513 33.578,80.7789995 L33.578,85.179 C42.4269368,85.1769763 51.2064916,86.7400505 59.511,89.796 L59.511,87.284 L59.511,87.286 Z M59.511,78.486 C51.8310872,73.3715426 42.8050357,70.6535988 33.578,70.677 L33.578,75.077 C42.5183427,75.0556458 51.3600538,76.9448188 59.511,80.618 L59.511,78.484 L59.511,78.486 Z M59.511,69.686 C52.1744153,63.7522425 43.0137408,60.5341905 33.578,60.576 L33.578,64.976 C42.6262853,64.9329851 51.5414653,67.1551624 59.511,71.44 L59.511,69.684 L59.511,69.686 Z M59.511,60.886 C52.5593611,54.1600295 43.2507069,50.4229994 33.578,50.475 L33.578,54.875 C42.7505597,54.8100964 51.7497856,57.3738676 59.511,62.263 L59.511,60.854 L59.511,60.886 Z M59.511,52.086 C52.980197,44.5977111 43.5139586,40.3221529 33.578,40.373 L33.578,44.773 C42.8905112,44.6877601 51.9831717,47.6021238 59.511,53.085 L59.511,52.085 L59.511,52.086 Z M59.511,43.286 C53.4386897,35.0525701 43.8074255,30.2042568 33.577,30.2308899 L33.577,34.631 C43.0442753,34.5287852 52.2382696,37.8028583 59.51,43.866 L59.51,43.246 L59.511,43.286 Z M27.571,-20.634 C20.8057731,-31.3891913 8.98799814,-37.9127814 -3.718,-37.9060053 L-3.718,-32.595 C7.90874699,-32.7336748 19.1321022,-28.3370925 27.571,-20.338 L27.571,-20.638 L27.571,-20.634 Z M27.571,130.377 L-3.718,130.377 L-3.718,135.688 L27.571,135.688 L27.571,130.377 Z M27.571,120.309 C17.4,119.618 6.895,119.158 -3.718,119.158 L-3.718,124.469 C6.845,124.469 17.324,124.784 27.571,125.286 L27.571,120.309 Z M27.571,110.242 C17.2067303,108.755832 6.75218272,107.987337 -3.718,107.942 L-3.718,113.253 C6.982,113.253 17.505,113.884 27.571,114.887 L27.571,110.245 L27.571,110.242 Z M27.571,100.175 C17.2915765,97.9279073 6.80404766,96.7698514 -3.718,96.72 L-3.718,102.031 C6.75836813,102.062334 17.2175399,102.881646 27.571,104.482 L27.571,100.175 L27.571,100.175 Z M27.571,90.107 C17.412386,87.0963109 6.87726834,85.5454543 -3.718,85.501 L-3.718,90.812 C6.79539494,90.840448 17.278766,91.9357256 27.571,94.081 L27.571,90.107 L27.571,90.107 Z M27.571,80.04 C17.5697986,76.2643571 6.9721132,74.3144425 -3.718,74.283 L-3.718,79.593 C6.84329455,79.6142453 17.3584237,80.9874058 27.571,83.679 L27.571,80.04 L27.571,80.04 Z M27.571,69.972 C17.7631682,65.4350545 7.08835165,63.0782635 -3.718,63.064 L-3.718,68.374 C6.90203416,68.3829194 17.4566819,70.0358253 27.571,73.274 L27.571,69.974 L27.571,69.972 Z M27.571,59.905 C17.9918545,54.6128136 7.22582178,51.8394996 -3.718,51.8449918 L-3.718,57.156 C6.9721511,57.1504583 17.5742354,59.088645 27.571,62.876 L27.571,59.905 L27.571,59.905 Z M27.571,49.838 C18.2539762,43.80105 7.38384935,40.6007045 -3.718,40.626 L-3.718,45.937 C7.05297357,45.9144538 17.7100104,48.1409568 27.571,52.474 L27.571,49.838 L27.571,49.838 Z M27.571,39.77 C18.5469127,33.0028555 7.56147631,29.3644498 -3.718,29.407 L-3.718,34.718 C7.14460623,34.6768924 17.8640085,37.1963237 27.571,42.072 L27.571,39.772 L27.571,39.77 Z M27.571,29.703 C18.8686534,22.2214107 7.75814639,18.132514 -3.718,18.188 L-3.718,23.499 C7.24690838,23.4383855 18.0358016,26.2558628 27.571,31.67 L27.571,29.703 L27.571,29.703 Z M27.571,19.636 C19.2163133,11.4581324 7.97278183,6.90631502 -3.718,6.969 L-3.718,12.28 C7.35959954,12.200269 18.2245369,15.3213038 27.571,21.268 L27.571,19.631 L27.571,19.636 Z M27.571,9.568 C19.5864534,0.71440616 8.2040477,-4.31234706 -3.718,-4.25 L-3.718,1.061 C7.48254655,0.963434822 18.4295961,4.39424973 27.571,10.867 L27.571,9.567 L27.571,9.568 Z M27.571,-0.499 C19.9771202,-10.0084163 8.45135129,-15.5228386 -3.718,-15.469 L-3.718,-10.158 C7.61521182,-10.2718076 18.6497676,-6.52544031 27.571,0.465 L27.571,-0.499 L27.571,-0.499 Z M27.571,-10.566 C20.3841115,-20.7087018 8.71278797,-26.7217331 -3.718,-26.6861584 L-3.718,-21.375 C7.75740477,-21.5027593 18.8843026,-17.4345017 27.571,-9.935 L27.571,-10.569 L27.571,-10.566 Z M-98.622,81.248 C-94.3704878,74.4885322 -86.9433455,70.3885713 -78.958,70.3929964 L-78.958,73.731 C-86.2644957,73.6433646 -93.3177841,76.4052808 -98.622,81.431 L-98.622,81.245 L-98.622,81.248 Z M-98.622,132.348 L-78.958,132.348 L-78.958,135.686 L-98.622,135.686 L-98.622,132.348 Z M-98.622,88.548 C-93.8128307,82.6314851 -86.5824314,79.2119004 -78.958,79.248 L-78.958,82.586 C-86.0679689,82.5145892 -92.9948471,84.8395178 -98.622,89.186 L-98.622,88.549 L-98.622,88.548 Z M-98.622,95.848 C-93.3072781,90.8326029 -86.26546,88.0561985 -78.958,88.095 L-78.958,91.431 C-85.8987984,91.3836228 -92.7129659,93.2895383 -98.622,96.931 L-98.622,95.844 L-98.622,95.848 Z M-98.622,103.148 C-92.8692096,99.0914928 -85.9971269,96.9247458 -78.958,96.948 L-78.958,100.286 C-85.7591352,100.264583 -92.4785602,101.768116 -98.622,104.686 L-98.622,103.15 L-98.622,103.148 Z M-98.622,110.448 C-92.517181,107.392297 -85.7848678,105.799604 -78.958,105.796 L-78.958,109.131 C-85.6503469,109.13253 -92.2957856,110.247764 -98.622,112.431 L-98.622,110.444 L-98.622,110.448 Z M-98.622,117.748 C-92.2635057,115.719062 -85.6323075,114.673663 -78.958,114.648 L-78.958,117.986 C-85.5731637,118.002123 -92.1668306,118.739819 -98.622,120.186 L-98.622,117.748 L-98.622,117.748 Z M-98.622,125.048 C-92.1146697,124.045879 -85.5419734,123.527791 -78.958,123.498 L-78.958,126.836 C-85.5275396,126.853559 -92.0914893,127.220745 -98.622,127.936 L-98.622,125.048 L-98.622,125.048 Z M-72.952,34.441 C-67.3433376,25.5291468 -57.5488707,20.1244956 -47.019,20.1309941 L-47.019,24.531 C-56.6550829,24.4153833 -65.9571558,28.0583036 -72.952,34.687 L-72.952,34.442 L-72.952,34.441 Z M-72.952,131.285 L-47.019,131.285 L-47.019,135.685 L-72.952,135.685 L-72.952,131.285 Z M-72.952,122.485 C-64.601,121.703 -55.871,121.185 -47.019,121.185 L-47.019,125.585 C-55.814,125.585 -64.514,125.942 -72.952,126.509 L-72.952,122.485 Z M-72.952,113.685 C-64.4099644,111.995977 -55.726327,111.125369 -47.019,111.085 L-47.019,115.485 C-55.6952703,115.510401 -64.3597075,116.1275 -72.952,117.332 L-72.952,113.686 L-72.952,113.685 Z M-72.952,104.885 C-64.5427676,102.333242 -55.8068023,101.019462 -47.019,100.985 L-47.019,105.385 C-55.735922,105.407995 -64.4268831,106.336308 -72.952,108.155 L-72.952,104.887 L-72.952,104.885 Z M-72.952,96.085 C-64.7321304,92.6677198 -55.9208911,90.8988804 -47.019,90.879 L-47.019,95.279 C-55.793492,95.2922895 -64.52279,96.5357255 -72.952,98.973 L-72.952,96.083 L-72.952,96.085 Z M-72.952,87.285 C-64.9759875,83.0120368 -56.0674799,80.7767513 -47.019,80.7779995 L-47.019,85.178 C-55.8679331,85.1760183 -64.6474806,86.7390913 -72.952,89.795 L-72.952,87.283 L-72.952,87.285 Z M-72.952,78.485 C-65.2720353,73.3706527 -56.2460181,70.6527193 -47.019,70.676 L-47.019,75.076 C-55.9593299,75.054769 -64.8010152,76.9439365 -72.952,80.617 L-72.952,78.483 L-72.952,78.485 Z M-72.952,69.685 C-65.6152935,63.7514608 -56.4546993,60.5334369 -47.019,60.575 L-47.019,64.975 C-56.06727,64.9321125 -64.982419,67.1542821 -72.952,71.439 L-72.952,69.683 L-72.952,69.685 Z M-72.952,60.885 C-66.0050121,54.1475467 -56.6953961,50.3991465 -47.018,50.443 L-47.018,54.843 C-56.1908917,54.777961 -65.1904755,57.3417354 -72.952,62.231 L-72.952,60.854 L-72.952,60.885 Z M-72.952,52.085 C-66.4273852,44.5835493 -56.95986,40.2947976 -47.018,40.337 L-47.018,44.737 C-56.3310451,44.6523384 -65.4240451,47.5673998 -72.952,53.051 L-72.952,52.051 L-72.952,52.085 Z M-72.952,43.285 C-66.8794773,35.0519474 -57.2482473,30.2040228 -47.018,30.230888 L-47.018,34.631 C-56.4852753,34.5287852 -65.6792696,37.8028583 -72.951,43.866 L-72.951,43.246 L-72.952,43.285 Z M-41.012,130.416 L-9.723,130.416 L-9.723,135.727 L-41.012,135.727 L-41.012,130.416 L-41.012,130.416 Z M-41.012,120.348 C-30.842,119.657 -20.336,119.197 -9.723,119.197 L-9.723,124.508 C-20.286,124.508 -30.764,124.823 -41.012,125.325 L-41.012,120.348 Z M-41.012,110.281 C-30.6477313,108.794823 -20.1931831,108.026327 -9.723,107.981 L-9.723,113.292 C-20.423,113.292 -30.946,113.923 -41.012,114.926 L-41.012,110.284 L-41.012,110.281 Z M-41.012,100.214 C-30.7325826,97.9668707 -20.2450498,96.8088143 -9.723,96.759 L-9.723,102.031 C-20.1993697,102.062297 -30.6585442,102.881608 -41.012,104.482 L-41.012,100.175 L-41.012,100.214 Z M-41.012,90.146 C-30.8533918,87.1352844 -20.3182704,85.5844272 -9.723,85.54 L-9.723,90.851 C-20.2363949,90.879448 -30.719766,91.9747256 -41.012,94.12 L-41.012,90.146 L-41.012,90.146 Z M-41.012,80.079 C-31.0108044,76.3033361 -20.4131152,74.3534209 -9.723,74.322 L-9.723,79.632 C-20.2843003,79.6531575 -30.7994407,81.0263194 -41.012,83.718 L-41.012,80.079 L-41.012,80.079 Z M-41.012,70.011 C-31.2041886,65.473994 -20.5293586,63.1172001 -9.723,63.103 L-9.723,68.413 C-20.3430417,68.421823 -30.8977042,70.0747312 -41.012,73.313 L-41.012,70.013 L-41.012,70.011 Z M-41.012,59.944 C-31.4328708,54.6517727 -20.6668273,51.8784559 -9.723,51.8839917 L-9.723,57.195 C-20.4131571,57.1893916 -31.0152533,59.1275805 -41.012,62.915 L-41.012,59.905 L-41.012,59.944 Z M-41.012,49.877 C-31.6949762,43.84005 -20.8248493,40.6397045 -9.723,40.665 L-9.723,45.976 C-20.4939796,45.9533951 -31.1510284,48.1799005 -41.012,52.513 L-41.012,49.838 L-41.012,49.877 Z M-41.012,39.809 C-31.99282,33.0279362 -21.0069467,29.3756925 -9.723,29.407 L-9.723,34.718 C-20.5856148,34.6768173 -31.3050343,37.1962526 -41.012,42.072 L-41.012,39.772 L-41.012,39.809 Z M-41.012,29.742 C-32.3153388,22.2461582 -21.2041824,18.1431731 -9.723,18.188 L-9.723,23.499 C-20.6879201,23.438292 -31.4768371,26.2557755 -41.012,31.67 L-41.012,29.703 L-41.012,29.742 Z M-41.012,19.675 C-32.6636771,11.4827683 -21.4193417,6.91661008 -9.723,6.969 L-9.723,12.28 C-20.8006073,12.2002121 -31.6655605,15.3212514 -41.012,21.268 L-41.012,19.631 L-41.012,19.675 Z M-41.012,9.607 C-33.034566,0.738854632 -21.6511472,-4.30253481 -9.723,-4.25 L-9.723,1.061 C-20.9235566,0.963366905 -31.8706265,4.3941882 -41.012,10.867 L-41.012,9.567 L-41.012,9.607 Z M-41.012,-0.46 C-33.4259099,-9.98403006 -21.8989575,-15.5133863 -9.723,-15.469 L-9.723,-10.158 C-21.0561991,-10.2717278 -32.0907292,-6.52536926 -41.012,0.465 L-41.012,-0.499 L-41.012,-0.46 Z M-41.012,-10.527 C-33.8251115,-20.6697018 -22.153788,-26.6827331 -9.723,-26.6471584 L-9.723,-21.336 C-21.1984048,-21.4637593 -32.3253026,-17.3955017 -41.012,-9.896 L-41.012,-10.569 L-41.012,-10.527 Z" fill="#FFFFFF" mask="url(#mask-2)"></path>
            </g>
        </g>
    </g>
</svg>